<svg width="600" height="240" viewBox="0 0 600 240" fill="none" xmlns="http://www.w3.org/2000/svg">
<path d="M75.517 125.424L89.7691 91.3995L103.752 125.074L104.204 126.162L104.673 125.081L117.804 94.7848H128.252L104.213 150.643L90.23 118.32L89.7668 117.249L89.3109 118.323L75.5959 150.637L51.3828 94.7848H61.8239L74.5943 125.423L75.0547 126.527L75.517 125.424Z" fill="url(#paint0_linear_1547_24)" stroke="white"/>
<path d="M57.2994 138.741V138.947L57.4442 139.093L66.0986 147.831L67.4008 150.816L65.4326 150.876L54.8477 141.395V134.186H57.2994V138.741Z" fill="url(#paint1_linear_1547_24)" stroke="white"/>
<path d="M122.464 139.181L122.609 139.035V138.829V134.273H125.061V141.483L114.476 150.963L112.508 150.904L113.81 147.919L122.464 139.181Z" fill="url(#paint2_linear_1547_24)" stroke="white"/>
<path d="M75.5544 88.5957V89.3245L68.7835 94.2981L66.7084 91.7573L69.2969 88.5957H75.5544Z" fill="url(#paint3_linear_1547_24)" stroke="white"/>
<path d="M113.924 91.7573L111.849 94.2981L105.078 89.3245V88.5957H111.336L113.924 91.7573Z" fill="url(#paint4_linear_1547_24)" stroke="white"/>
<path d="M130.489 73.9208C134.971 76.1187 137.401 78.2597 140.295 82.5535L140.295 82.5535C140.798 83.3004 141.052 84.1819 141.052 85.0818V94.2205H134.967V89.3384C134.967 88.4215 134.872 87.4846 134.596 86.5757L134.117 86.721L134.596 86.5757C134.068 84.8376 133.402 83.5088 132.385 82.4728C131.367 81.4364 130.038 80.7337 128.256 80.1744L128.256 80.1744C127.24 79.8555 126.18 79.7501 125.146 79.7501H119.07V73.4277H128.283C129.055 73.4277 129.814 73.5899 130.489 73.9208ZM130.489 73.9208L130.709 73.472L130.489 73.9208Z" fill="url(#paint5_linear_1547_24)" stroke="white"/>
<path d="M45.2255 86.5757L45.2255 86.5757C44.9496 87.4846 44.8547 88.4215 44.8547 89.3384V94.2205H38.7695V85.0818C38.7695 84.1819 39.0232 83.3004 39.5266 82.5535L39.1135 82.2751L39.5266 82.5535C42.4201 78.2597 44.8499 76.1187 49.3324 73.9208C50.0072 73.5899 50.7658 73.4277 51.5386 73.4277H60.7509V79.7501H54.6755C53.6414 79.7501 52.5816 79.8555 51.5655 80.1744L51.5655 80.1744C49.7835 80.7337 48.454 81.4364 47.4363 82.4728C46.4189 83.5088 45.7532 84.8376 45.2255 86.5757Z" fill="url(#paint6_linear_1547_24)" stroke="white"/>
<path d="M45.2255 154.82L45.2255 154.82C45.7532 156.558 46.4189 157.886 47.4363 158.923C48.454 159.959 49.7835 160.662 51.5655 161.221C52.5816 161.54 53.6414 161.645 54.6755 161.645H60.7509V167.968H51.5386C50.7657 167.968 50.0072 167.806 49.3324 167.475L49.3324 167.475C44.8499 165.277 42.4201 163.136 39.5266 158.842L39.5266 158.842C39.0232 158.095 38.7695 157.213 38.7695 156.313V147.175H44.8547V152.057C44.8547 152.974 44.9496 153.911 45.2255 154.82Z" fill="url(#paint7_linear_1547_24)" stroke="white"/>
<path d="M134.775 154.82L134.297 154.674L134.775 154.82C135.051 153.911 135.146 152.974 135.146 152.057V147.175H141.231V156.313C141.231 157.213 140.978 158.095 140.474 158.842L140.474 158.842C137.581 163.136 135.151 165.277 130.669 167.475L130.669 167.475C129.994 167.806 129.235 167.968 128.462 167.968H119.25V161.645H125.325C126.359 161.645 127.419 161.54 128.435 161.221C130.217 160.662 131.547 159.959 132.565 158.923C133.582 157.887 134.248 156.558 134.775 154.82Z" fill="url(#paint8_linear_1547_24)" stroke="white"/>
<path d="M114.069 76.3856V80.7961H75.4185H66.5625V76.3914H79.3245H79.6362L79.7734 76.1116L83.9963 67.5H96.3242L99.3835 75.8884L99.5019 76.213L99.8473 76.2171L114.069 76.3856ZM89.8614 75.8684C91.4403 75.8684 92.7231 74.5924 92.7231 73.0148C92.7231 71.4372 91.4403 70.1612 89.8614 70.1612C88.2824 70.1612 86.9996 71.4372 86.9996 73.0148C86.9996 74.5924 88.2824 75.8684 89.8614 75.8684Z" fill="url(#paint9_linear_1547_24)" stroke="white"/>
<path d="M43.471 112.174L43.7652 112.041V111.719V99.666H45.1918L48.397 108.062V143.472H43.2418L43.7648 131.092L43.78 130.73L43.4413 130.603L34.5 127.238V116.226L43.471 112.174ZM41.5393 124.51C43.1182 124.51 44.4011 123.234 44.4011 121.656C44.4011 120.078 43.1182 118.803 41.5393 118.803C39.9605 118.803 38.6776 120.078 38.6776 121.656C38.6776 123.234 39.9605 124.51 41.5393 124.51Z" fill="url(#paint10_linear_1547_24)" stroke="white"/>
<path d="M134.807 99.2305H136.233V111.283V111.606L136.528 111.739L145.499 115.79V126.802L136.557 130.167L136.219 130.295L136.234 130.656L136.757 143.036H131.602V107.627L134.807 99.2305ZM138.55 123.987C140.129 123.987 141.412 122.711 141.412 121.133C141.412 119.556 140.129 118.28 138.55 118.28C136.971 118.28 135.688 119.556 135.688 121.133C135.688 122.711 136.971 123.987 138.55 123.987Z" fill="url(#paint11_linear_1547_24)" stroke="white"/>
<path d="M66.2031 163.615V159.204H104.853H113.709V163.609H100.947H100.636L100.498 163.889L96.2754 172.5H83.9475L80.8882 164.112L80.7698 163.787L80.4244 163.783L66.2031 163.615ZM90.047 168.793C91.6259 168.793 92.9087 167.517 92.9087 165.939C92.9087 164.362 91.6259 163.086 90.047 163.086C88.4681 163.086 87.1853 164.362 87.1853 165.939C87.1853 167.517 88.4681 168.793 90.047 168.793Z" fill="url(#paint12_linear_1547_24)" stroke="white"/>
<path d="M189 156C182.438 156 176.781 154.047 172.031 150.141C167.344 146.203 165 141.484 165 135.984V92.0156H184.219V134.391C184.219 135.953 184.859 137.281 186.141 138.375C187.516 139.469 189.109 140.016 190.922 140.016H203.391V92.0156H222.609V140.016H241.781V92.0156H261V156H189ZM304.219 132V156H285V132L256.266 92.0156H280.688L294.609 116.016L308.531 92.0156H333L304.219 132ZM345.516 156L368.531 140.016H401.156V156H345.516ZM335.906 156H328.219V140.016L397.359 92.0156H405V108L335.906 156ZM364.688 108H332.062V92.0156H387.75L364.688 108ZM462.516 112.781C462.516 111.375 461.984 110.234 460.922 109.359C459.891 108.453 458.531 108 456.844 108H429.938C428.406 108 427.062 108.484 425.906 109.453C424.781 110.391 424.219 111.5 424.219 112.781V117.609H456.844C458.531 117.609 459.891 117.156 460.922 116.25C461.984 115.344 462.516 114.188 462.516 112.781ZM481.781 111.188C481.781 116.25 479.609 120.719 475.266 124.594C470.922 128.469 465.734 130.406 459.703 130.406H424.219V135.188C424.219 136.469 424.781 137.594 425.906 138.562C427.062 139.531 428.406 140.016 429.938 140.016H477V156H429C422.438 156 416.781 154.047 412.031 150.141C407.344 146.203 405 141.484 405 135.984V111.984C405 106.516 407.344 101.828 412.031 97.9219C416.719 93.9844 422.375 92.0156 429 92.0156H459.703C465.734 92.0156 470.922 93.9531 475.266 97.8281C479.609 101.672 481.781 106.125 481.781 111.188ZM539.391 113.578C539.391 112.047 538.734 110.734 537.422 109.641C536.047 108.547 534.453 108 532.641 108H501V123.984H532.641C534.453 123.984 536.047 123.438 537.422 122.344C538.734 121.281 539.391 119.969 539.391 118.406V113.578ZM558.562 120C558.562 125.5 556.219 130.219 551.531 134.156C546.781 138.062 541.125 140.016 534.562 140.016H526.922L553.781 156H525.938L501 140.016V156H481.781V92.0156H534.562C541.188 92.0156 546.844 93.9844 551.531 97.9219C556.219 101.828 558.562 106.516 558.562 111.984V120Z" fill="white"/>
<defs>
<linearGradient id="paint0_linear_1547_24" x1="89.8166" y1="90.1006" x2="90.3245" y2="163.089" gradientUnits="userSpaceOnUse">
<stop stop-color="#8E7BE6"/>
<stop offset="1" stop-color="#00A3FF"/>
</linearGradient>
<linearGradient id="paint1_linear_1547_24" x1="61.2511" y1="133.686" x2="61.4875" y2="154.582" gradientUnits="userSpaceOnUse">
<stop stop-color="#8E7BE6"/>
<stop offset="1" stop-color="#00A3FF"/>
</linearGradient>
<linearGradient id="paint2_linear_1547_24" x1="118.657" y1="133.773" x2="118.894" y2="154.67" gradientUnits="userSpaceOnUse">
<stop stop-color="#8E7BE6"/>
<stop offset="1" stop-color="#00A3FF"/>
</linearGradient>
<linearGradient id="paint3_linear_1547_24" x1="71.0584" y1="88.0957" x2="71.1079" y2="96.2284" gradientUnits="userSpaceOnUse">
<stop stop-color="#8E7BE6"/>
<stop offset="1" stop-color="#00A3FF"/>
</linearGradient>
<linearGradient id="paint4_linear_1547_24" x1="109.574" y1="88.0957" x2="109.624" y2="96.2284" gradientUnits="userSpaceOnUse">
<stop stop-color="#8E7BE6"/>
<stop offset="1" stop-color="#00A3FF"/>
</linearGradient>
<linearGradient id="paint5_linear_1547_24" x1="130.061" y1="72.9277" x2="130.276" y2="98.6634" gradientUnits="userSpaceOnUse">
<stop stop-color="#8E7BE6"/>
<stop offset="1" stop-color="#00A3FF"/>
</linearGradient>
<linearGradient id="paint6_linear_1547_24" x1="49.7602" y1="72.9277" x2="49.9756" y2="98.6634" gradientUnits="userSpaceOnUse">
<stop stop-color="#8E7BE6"/>
<stop offset="1" stop-color="#00A3FF"/>
</linearGradient>
<linearGradient id="paint7_linear_1547_24" x1="49.7602" y1="146.675" x2="49.9756" y2="172.41" gradientUnits="userSpaceOnUse">
<stop stop-color="#8E7BE6"/>
<stop offset="1" stop-color="#00A3FF"/>
</linearGradient>
<linearGradient id="paint8_linear_1547_24" x1="130.241" y1="146.675" x2="130.456" y2="172.41" gradientUnits="userSpaceOnUse">
<stop stop-color="#8E7BE6"/>
<stop offset="1" stop-color="#00A3FF"/>
</linearGradient>
<linearGradient id="paint9_linear_1547_24" x1="90.3155" y1="67" x2="90.3595" y2="83.8837" gradientUnits="userSpaceOnUse">
<stop stop-color="#8E7BE6"/>
<stop offset="1" stop-color="#00A3FF"/>
</linearGradient>
<linearGradient id="paint10_linear_1547_24" x1="41.4485" y1="99.166" x2="42.8523" y2="152.045" gradientUnits="userSpaceOnUse">
<stop stop-color="#8E7BE6"/>
<stop offset="1" stop-color="#00A3FF"/>
</linearGradient>
<linearGradient id="paint11_linear_1547_24" x1="138.55" y1="98.7305" x2="139.954" y2="151.609" gradientUnits="userSpaceOnUse">
<stop stop-color="#8E7BE6"/>
<stop offset="1" stop-color="#00A3FF"/>
</linearGradient>
<linearGradient id="paint12_linear_1547_24" x1="89.9562" y1="158.704" x2="90.0001" y2="175.588" gradientUnits="userSpaceOnUse">
<stop stop-color="#8E7BE6"/>
<stop offset="1" stop-color="#00A3FF"/>
</linearGradient>
</defs>
</svg>
